<svg width="104" height="28" viewBox="0 0 104 28" fill="none" xmlns="http://www.w3.org/2000/svg">
<g clip-path="url(#clip0_17539_4022)">
<path d="M6.43438 27.5808V25.7703C6.43438 25.0777 6.0125 24.6242 5.28828 24.6242C4.92617 24.6242 4.53242 24.7437 4.26172 25.1375C4.05078 24.807 3.74844 24.6242 3.29492 24.6242C2.99258 24.6242 2.69023 24.7156 2.45117 25.046V24.6839H1.81836V27.5808H2.45117V25.9812C2.45117 25.4679 2.72188 25.2253 3.14375 25.2253C3.56563 25.2253 3.77656 25.496 3.77656 25.9812V27.5808H4.40937V25.9812C4.40937 25.4679 4.71172 25.2253 5.10195 25.2253C5.52383 25.2253 5.73477 25.496 5.73477 25.9812V27.5808H6.43438ZM15.8211 24.6839H14.7945V23.8085H14.1617V24.6839H13.5887V25.257H14.1617V26.5859C14.1617 27.2503 14.4324 27.6406 15.1566 27.6406C15.4273 27.6406 15.7297 27.5492 15.9406 27.4296L15.7578 26.8847C15.575 27.0042 15.3641 27.0359 15.2129 27.0359C14.9105 27.0359 14.791 26.8531 14.791 26.5542V25.257H15.8176V24.6839H15.8211ZM21.193 24.6207C20.8309 24.6207 20.5883 24.8035 20.4371 25.0425V24.6804H19.8043V27.5773H20.4371V25.946C20.4371 25.4644 20.648 25.1902 21.0418 25.1902C21.1613 25.1902 21.3125 25.2218 21.4355 25.25L21.6184 24.6453C21.4918 24.6207 21.3125 24.6207 21.193 24.6207ZM13.0754 24.923C12.773 24.7121 12.3512 24.6207 11.8977 24.6207C11.1734 24.6207 10.6918 24.9828 10.6918 25.5558C10.6918 26.0375 11.0539 26.3117 11.6867 26.3996L11.9891 26.4312C12.3195 26.491 12.5023 26.5824 12.5023 26.7335C12.5023 26.9445 12.2598 27.0957 11.8379 27.0957C11.416 27.0957 11.082 26.9445 10.8711 26.7933L10.5688 27.275C10.8992 27.5175 11.3527 27.6371 11.8063 27.6371C12.65 27.6371 13.1352 27.2433 13.1352 26.7019C13.1352 26.1886 12.7414 25.9179 12.1402 25.8265L11.8379 25.7949C11.5672 25.7632 11.3563 25.7035 11.3563 25.5242C11.3563 25.3132 11.5672 25.1937 11.9012 25.1937C12.2633 25.1937 12.6254 25.3449 12.8082 25.4363L13.0754 24.923ZM29.9117 24.6207C29.5496 24.6207 29.307 24.8035 29.1559 25.0425V24.6804H28.523V27.5773H29.1559V25.946C29.1559 25.4644 29.3668 25.1902 29.7605 25.1902C29.8801 25.1902 30.0312 25.2218 30.1543 25.25L30.3371 24.6523C30.2141 24.6207 30.0348 24.6207 29.9117 24.6207ZM21.8258 26.1324C21.8258 27.0078 22.4305 27.6406 23.3656 27.6406C23.7875 27.6406 24.0898 27.5492 24.3922 27.3101L24.0898 26.7968C23.8473 26.9796 23.6082 27.0675 23.334 27.0675C22.8207 27.0675 22.4586 26.7054 22.4586 26.1324C22.4586 25.5875 22.8207 25.2253 23.334 25.1972C23.6047 25.1972 23.8473 25.2886 24.0898 25.4679L24.3922 24.9546C24.0898 24.7121 23.7875 24.6242 23.3656 24.6242C22.4305 24.6207 21.8258 25.257 21.8258 26.1324ZM27.6793 26.1324V24.6839H27.0465V25.046C26.8355 24.7753 26.5332 24.6242 26.1395 24.6242C25.3238 24.6242 24.691 25.257 24.691 26.1324C24.691 27.0078 25.3238 27.6406 26.1395 27.6406C26.5613 27.6406 26.8637 27.4894 27.0465 27.2187V27.5808H27.6793V26.1324ZM25.3555 26.1324C25.3555 25.6191 25.6859 25.1972 26.2309 25.1972C26.7441 25.1972 27.1062 25.591 27.1062 26.1324C27.1062 26.6457 26.7441 27.0675 26.2309 27.0675C25.6895 27.0359 25.3555 26.6421 25.3555 26.1324ZM17.7828 24.6207C16.9391 24.6207 16.3344 25.2253 16.3344 26.1289C16.3344 27.0359 16.9391 27.6371 17.8145 27.6371C18.2363 27.6371 18.6582 27.5175 18.9922 27.2433L18.6898 26.7898C18.4473 26.9726 18.1449 27.0921 17.8461 27.0921C17.4523 27.0921 17.0621 26.9093 16.9707 26.3996H19.1117C19.1117 26.3082 19.1117 26.2484 19.1117 26.157C19.1398 25.2253 18.5949 24.6207 17.7828 24.6207ZM17.7828 25.1656C18.1766 25.1656 18.4473 25.4082 18.507 25.8582H16.9988C17.0586 25.4679 17.3293 25.1656 17.7828 25.1656ZM33.5047 26.1324V23.5378H32.8719V25.046C32.6609 24.7753 32.3586 24.6242 31.9648 24.6242C31.1492 24.6242 30.5164 25.257 30.5164 26.1324C30.5164 27.0078 31.1492 27.6406 31.9648 27.6406C32.3867 27.6406 32.6891 27.4894 32.8719 27.2187V27.5808H33.5047V26.1324ZM31.1809 26.1324C31.1809 25.6191 31.5113 25.1972 32.0563 25.1972C32.5695 25.1972 32.9316 25.591 32.9316 26.1324C32.9316 26.6457 32.5695 27.0675 32.0563 27.0675C31.5113 27.0359 31.1809 26.6421 31.1809 26.1324ZM9.9957 26.1324V24.6839H9.36289V25.046C9.15195 24.7753 8.84961 24.6242 8.45586 24.6242C7.64023 24.6242 7.00742 25.257 7.00742 26.1324C7.00742 27.0078 7.64023 27.6406 8.45586 27.6406C8.87773 27.6406 9.18008 27.4894 9.36289 27.2187V27.5808H9.9957V26.1324ZM7.64375 26.1324C7.64375 25.6191 7.97422 25.1972 8.51914 25.1972C9.03242 25.1972 9.39453 25.591 9.39453 26.1324C9.39453 26.6457 9.03242 27.0675 8.51914 27.0675C7.97422 27.0359 7.64375 26.6421 7.64375 26.1324Z" fill="black"/>
<path d="M22.3708 2.68335H12.8645V19.7623H22.3708V2.68335Z" fill="#FF5A00"/>
<path d="M13.4973 11.2227C13.4973 7.75273 15.1286 4.67305 17.6317 2.6832C15.7895 1.23477 13.4657 0.359375 10.9309 0.359375C4.92622 0.359375 0.067627 5.21797 0.067627 11.2227C0.067627 17.2273 4.92622 22.0859 10.9309 22.0859C13.4657 22.0859 15.7895 21.2105 17.6317 19.7621C15.125 17.8004 13.4973 14.6926 13.4973 11.2227Z" fill="#EB001B"/>
<path d="M35.1959 11.2227C35.1959 17.2273 30.3373 22.0859 24.3326 22.0859C21.7979 22.0859 19.474 21.2105 17.6318 19.7621C20.1666 17.7688 21.7662 14.6926 21.7662 11.2227C21.7662 7.75273 20.135 4.67305 17.6318 2.6832C19.4705 1.23477 21.7943 0.359375 24.3291 0.359375C30.3373 0.359375 35.1959 5.24961 35.1959 11.2227Z" fill="#F79E1B"/>
</g>
<g clip-path="url(#clip1_17539_4022)">
<path d="M74.0484 22.2876H69.7764L72.4484 5.76562H76.7202L74.0484 22.2876Z" fill="#00579F"/>
<path d="M89.535 6.16947C88.6923 5.83517 87.3558 5.46606 85.7033 5.46606C81.4845 5.46606 78.5136 7.71574 78.4954 10.9321C78.4604 13.3051 80.6224 14.6232 82.2395 15.4144C83.8923 16.2229 84.4541 16.7507 84.4541 17.4714C84.4373 18.5782 83.1186 19.0884 81.8886 19.0884C80.183 19.0884 79.2691 18.8254 77.8803 18.2096L77.3178 17.9456L76.72 21.6544C77.7219 22.1109 79.5679 22.516 81.4845 22.5337C85.967 22.5337 88.8853 20.3188 88.9199 16.8913C88.9369 15.0105 87.7952 13.5693 85.3339 12.3917C83.8397 11.6357 82.9247 11.126 82.9247 10.3525C82.9422 9.64934 83.6986 8.92912 85.3853 8.92912C86.7741 8.89384 87.7945 9.22767 88.5676 9.56174L88.954 9.73718L89.535 6.16947Z" fill="#00579F"/>
<path d="M95.2131 16.4344C95.5649 15.4853 96.9187 11.8117 96.9187 11.8117C96.9009 11.847 97.2698 10.845 97.4807 10.2299L97.7793 11.6536C97.7793 11.6536 98.5883 15.6084 98.764 16.4344C98.0963 16.4344 96.0569 16.4344 95.2131 16.4344ZM100.486 5.76562H97.182C96.1629 5.76562 95.3888 6.06418 94.9491 7.13646L88.6035 22.2873H93.086C93.086 22.2873 93.824 20.2481 93.9827 19.8089C94.4744 19.8089 98.835 19.8089 99.4676 19.8089C99.5903 20.389 99.9774 22.2873 99.9774 22.2873H103.933L100.486 5.76562Z" fill="#00579F"/>
<path d="M66.2082 5.76562L62.0245 17.032L61.5673 14.747C60.7938 12.1105 58.368 9.24597 55.6609 7.82164L59.493 22.27H64.0106L70.7255 5.76562H66.2082Z" fill="#00579F"/>
<path d="M58.1394 5.76562H51.2661L51.1958 6.09946C56.5574 7.47052 60.1083 10.7754 61.5672 14.7477L60.073 7.15444C59.827 6.09922 59.0711 5.80043 58.1394 5.76562Z" fill="#FAA61A"/>
</g>
<defs>
<clipPath id="clip0_17539_4022">
<rect width="35.1281" height="27.2812" fill="white" transform="translate(0.067627 0.359375)"/>
</clipPath>
<clipPath id="clip1_17539_4022">
<rect width="52.7368" height="17.0676" fill="white" transform="translate(51.1958 5.46606)"/>
</clipPath>
</defs>
</svg>
