<?xml version="1.0" encoding="UTF-8"?>
<svg xmlns="http://www.w3.org/2000/svg" xmlns:xlink="http://www.w3.org/1999/xlink" viewBox="0 0 330.23 150.43">
  <defs>
    <style>
      .cls-1 {
        fill: #8a8c8e;
      }

      .cls-1, .cls-2, .cls-3, .cls-4, .cls-5, .cls-6, .cls-7, .cls-8, .cls-9 {
        stroke-width: 0px;
      }

      .cls-2 {
        fill: #231f20;
      }

      .cls-10 {
        mask: url(#mask-2);
      }

      .cls-11 {
        isolation: isolate;
      }

      .cls-12 {
        mask: url(#mask-3);
      }

      .cls-3 {
        fill: none;
      }

      .cls-4 {
        fill: #ed1c24;
      }

      .cls-5 {
        fill: #ffd600;
      }

      .cls-6 {
        fill: url(#linear-gradient-3);
      }

      .cls-7 {
        fill: url(#linear-gradient);
      }

      .cls-7, .cls-9 {
        mix-blend-mode: multiply;
      }

      .cls-8 {
        fill: #0054a6;
      }

      .cls-13 {
        filter: url(#luminosity-noclip);
      }

      .cls-14 {
        mask: url(#mask-1);
      }

      .cls-15 {
        mask: url(#mask);
      }

      .cls-9 {
        fill: url(#linear-gradient-2);
      }

      .cls-16 {
        filter: url(#luminosity-noclip-3);
      }
    </style>
    <linearGradient id="linear-gradient" x1="226.22" y1="113.2" x2="247.98" y2="113.2" gradientUnits="userSpaceOnUse">
      <stop offset="0" stop-color="#fff"/>
      <stop offset=".22" stop-color="#fcfcfc"/>
      <stop offset=".37" stop-color="#f2f2f2"/>
      <stop offset=".51" stop-color="#e2e2e2"/>
      <stop offset=".64" stop-color="#ccc"/>
      <stop offset=".76" stop-color="#afafaf"/>
      <stop offset=".87" stop-color="#8c8c8c"/>
      <stop offset=".98" stop-color="#636363"/>
      <stop offset="1" stop-color="#595959"/>
    </linearGradient>
    <filter id="luminosity-noclip" x="228.75" y="102.67" width="8.41" height="8.41" color-interpolation-filters="sRGB" filterUnits="userSpaceOnUse">
      <feFlood flood-color="#fff" result="bg"/>
      <feBlend in="SourceGraphic" in2="bg"/>
    </filter>
    <filter id="luminosity-noclip-2" x="228.75" y="-8126.15" width="8.41" height="32766" color-interpolation-filters="sRGB" filterUnits="userSpaceOnUse">
      <feFlood flood-color="#fff" result="bg"/>
      <feBlend in="SourceGraphic" in2="bg"/>
    </filter>
    <mask id="mask-1" x="228.75" y="-8126.15" width="8.41" height="32766" maskUnits="userSpaceOnUse"/>
    <linearGradient id="linear-gradient-2" x1="230.31" y1="103.62" x2="235.67" y2="110.21" gradientUnits="userSpaceOnUse">
      <stop offset="0" stop-color="#fff"/>
      <stop offset=".04" stop-color="#dadada"/>
      <stop offset=".11" stop-color="#a7a7a7"/>
      <stop offset=".17" stop-color="#7a7a7a"/>
      <stop offset=".24" stop-color="#545454"/>
      <stop offset=".32" stop-color="#353535"/>
      <stop offset=".39" stop-color="#1e1e1e"/>
      <stop offset=".47" stop-color="#0d0d0d"/>
      <stop offset=".56" stop-color="#030303"/>
      <stop offset=".66" stop-color="#000"/>
    </linearGradient>
    <mask id="mask" x="228.75" y="102.67" width="8.41" height="8.41" maskUnits="userSpaceOnUse">
      <g class="cls-13">
        <g class="cls-14">
          <path class="cls-9" d="M237.16,106.87c0,2.32-1.88,4.2-4.2,4.2s-4.2-1.88-4.2-4.2,1.88-4.2,4.2-4.2,4.2,1.88,4.2,4.2Z"/>
        </g>
      </g>
    </mask>
    <filter id="luminosity-noclip-3" x="228.75" y="102.67" width="8.41" height="8.41" color-interpolation-filters="sRGB" filterUnits="userSpaceOnUse">
      <feFlood flood-color="#fff" result="bg"/>
      <feBlend in="SourceGraphic" in2="bg"/>
    </filter>
    <filter id="luminosity-noclip-4" x="228.75" y="-8126.15" width="8.41" height="32766" color-interpolation-filters="sRGB" filterUnits="userSpaceOnUse">
      <feFlood flood-color="#fff" result="bg"/>
      <feBlend in="SourceGraphic" in2="bg"/>
    </filter>
    <mask id="mask-3" x="228.75" y="-8126.15" width="8.41" height="32766" maskUnits="userSpaceOnUse"/>
    <mask id="mask-2" x="228.75" y="102.67" width="8.41" height="8.41" maskUnits="userSpaceOnUse">
      <g class="cls-16">
        <g class="cls-12">
          <path class="cls-9" d="M237.16,106.87c0,2.32-1.88,4.2-4.2,4.2s-4.2-1.88-4.2-4.2,1.88-4.2,4.2-4.2,4.2,1.88,4.2,4.2Z"/>
        </g>
      </g>
    </mask>
    <linearGradient id="linear-gradient-3" x1="230.31" y1="103.62" x2="235.67" y2="110.21" gradientUnits="userSpaceOnUse">
      <stop offset="0" stop-color="#fff"/>
      <stop offset=".06" stop-color="#fff"/>
      <stop offset=".66" stop-color="#fff"/>
    </linearGradient>
  </defs>
  <g class="cls-11">
    <g id="Layer_1" data-name="Layer 1">
      <g>
        <g>
          <g>
            <path class="cls-4" d="M244.49,108.86l-4.14-4.16-1.42-1.45c-1.53-1.68-3.09-2.89-5.4-2.95-3.93-.11-7.2,2.99-7.3,6.91-.05,1.97.7,3.91,1.97,5.24l2.47,2.47,7.78,7.91c.13.11,1.2.98,1.22,2.48,0,.24-.03.58-.09.82l6.72-6.62c4.66-5.43-1.81-10.65-1.81-10.65Z"/>
            <path class="cls-7" d="M244.49,108.86l-4.14-4.16-1.42-1.45c-1.53-1.68-3.09-2.89-5.4-2.95-3.93-.11-7.2,2.99-7.3,6.91-.05,1.97.7,3.91,1.97,5.24l2.47,2.47,7.78,7.91c.13.11,1.2.98,1.22,2.48,0,.24-.03.58-.09.82l6.72-6.62c4.66-5.43-1.81-10.65-1.81-10.65Z"/>
            <g class="cls-15">
              <g class="cls-10">
                <path class="cls-6" d="M237.16,106.87c0,2.32-1.88,4.2-4.2,4.2s-4.2-1.88-4.2-4.2,1.88-4.2,4.2-4.2,4.2,1.88,4.2,4.2Z"/>
              </g>
            </g>
            <path class="cls-1" d="M238.97,125.46c-.01-1.25-1.07-2.16-1.07-2.16l-7.64-7.72-1.84,1.8h0c-1.33,1.25-2.33,2.84-2.38,4.81-.11,3.93,2.99,7.2,6.91,7.3,1.81.05,3.48-.39,4.73-1.51.98-.96,1.3-1.68,1.29-2.53Z"/>
          </g>
          <g>
            <path class="cls-8" d="M73.78,125.24c-1.25,0-2.26-1.02-2.27-2.28,0-1.25.99-2.28,2.25-2.3,4.02-.07,7.28-3.4,7.28-7.42s-3.29-7.38-7.34-7.42c-1.25-.01-2.26-1.03-2.26-2.29,0-.61.24-1.2.67-1.62.43-.43,1.01-.67,1.61-.67,0,0,.09,0,.09,0,3.34,0,6.52-.54,9.45-1.62l.72-.25c5.89-2.16,12.93-7.14,12.93-18.53v-4.71c0-4.06,3.3-7.37,7.37-7.37h11.46c4.06,0,7.36,3.31,7.36,7.37v2.55c0,14.94-4.29,26.55-12.75,34.51-5.05,4.75-11.62,8.12-19.53,10.03-.97.3-7.03,2.01-16.46,2.01,0,0-.58,0-.58,0Z"/>
            <path class="cls-3" d="M73.61,103.53h0s.02,0,.02,0"/>
            <path class="cls-8" d="M109.03,57.29c-9.95,0-18.05-8.1-18.05-18.06s8.1-18.06,18.05-18.06,18.05,8.1,18.05,18.06-8.1,18.06-18.05,18.06Z"/>
            <path class="cls-5" d="M38.03,57.29c-9.95,0-18.04-8.1-18.04-18.06s8.09-18.06,18.04-18.06,18.05,8.1,18.05,18.06-8.1,18.06-18.05,18.06Z"/>
            <path class="cls-8" d="M73.77,129.21c-3.42-.03-6.21-2.82-6.23-6.23-.02-3.41,2.74-6.23,6.15-6.29,1.86-.03,3.38-1.58,3.38-3.44s-1.53-3.42-3.41-3.44c-3.42-.03-6.2-2.84-6.2-6.26,0-1.66.67-3.28,1.84-4.44,1.18-1.18,2.75-1.83,4.42-1.83,0,0,.11,0,.11,0,2.85,0,5.57-.46,8.06-1.38l.75-.27c6.82-2.51,10.29-7.48,10.29-14.78v-4.71c0-6.26,5.09-11.35,11.34-11.35h11.46c6.25,0,11.34,5.09,11.34,11.35v2.55c0,16.08-4.71,28.67-14,37.41-5.53,5.21-12.67,8.9-21.21,10.97-1.46.43-7.86,2.15-17.5,2.15h-.6Z"/>
            <path class="cls-3" d="M73.61,103.53h0s.02,0,.02,0"/>
            <path class="cls-5" d="M73.21,129.2c-3.4-.05-6.86-.3-10.25-.74-2.32-.27-4.62-.67-6.79-1.16,0,0-.67-.13-.93-.19-.28-.06-.57-.15-.85-.25-8.19-2.11-15.05-5.73-20.41-10.77-9.29-8.74-14-21.33-14-37.41v-2.55c0-6.26,5.09-11.34,11.34-11.34h11.46c6.25,0,11.34,5.09,11.34,11.34v4.71c0,7.3,3.48,12.28,10.35,14.8.09.03.18.07.27.11.65.24,4.22,1.48,8.9,1.51.12,0,.25,0,.37.01,8.6.22,15.58,7.35,15.58,15.96s-7.04,15.81-15.69,15.96c-.02,0-.08,0-.11,0-.01,0-.59,0-.59,0Z"/>
          </g>
          <g>
            <path class="cls-2" d="M195.69,74.93c-.35,1.5-.28,3.01.91,4.78,2.13,3.16,6.48,4.88,10.07,3.35,4.29-1.83,15.33-8.17,23.27-16.05v19.91c0,1.43,1.16,2.58,2.58,2.58h6.4c1.43,0,2.58-1.16,2.58-2.58v-34.86c0-.82.66-1.49,1.48-1.49h5.37c.62,0,1.12.5,1.12,1.12v35.23c0,1.43,1.16,2.58,2.58,2.58h6.4c1.43,0,2.58-1.16,2.58-2.58v-44.95c0-1.43-1.16-2.58-2.58-2.58h-25.95c-1.43,0-2.58,1.16-2.58,2.58,0,1.24-.03,5.26.01,6.5-5.71-4.64-8.27-6.9-19.47-8.09-3.36-.36-6.77-.09-9.99.9-7.72,2.39-7.69,6.71-7.72,7.52-.09,2.77.79,5.5,2.51,7.68,1.78,2.25,2.73,5.03,2.83,7.88.07,2.06-.28,4.12-.88,6.08-.5,1.63-1.21,3.04-1.54,4.46h0ZM205.67,53.5c-.62-.55-.47-1.57.29-1.9,4.14-1.78,19.18,2.37,18.57,5.38-.62,3.08-18.73,16.61-17.25,11.98.24-.74,1.03-3.34,1.22-4.18.31-1.36.49-2.73.42-4.12-.14-3.08-1.42-4.88-3.25-7.17h0Z"/>
            <path class="cls-2" d="M309.8,77.03v-35.19c0-1.35-1.16-2.44-2.58-2.44h-39.66c-1.45,0-2.62,1.13-2.58,2.49l-.18,6.74s0,.07,0,.12c.11,1.81-.27,6.02,1.19,8.71.77,1.42,2.35,2.29,4.72,2.64,2.37.35,4.76.55,5.52,1.35,2.92,3.08-2.35,4.44-5.74,5.63-4.6,1.62-5.58,3.07-5.58,6.69,0,3.94-.61,6.07.96,9.77,1.69,3.99,5.51,3.36,9.31,3.1.97-.07,1.91-.12,2.8-.16.25-.39.53-.76.84-1.11,1.85-2.1,4.5-3.3,7.29-3.3.42,0,.84.03,1.26.08,3.38.43,6.27,2.7,7.62,5.73,4.8,1.24,6.64,2.54,10.62.69,3.07-1.42,4.11-3.82,4.21-7.28.04-1.42-.03-2.86-.03-4.28ZM295.49,76.43c-6.41-1.24-14.54-.83-15.3-.97-1.87-.33-2.12-2.14.03-3.41,1.22-.72,9.25-3.19,9.38-9.52v-.08c.06-3.12-1.9-5.94-4.89-7.03l-3.73-1.36c-1.86-.36-2.67-1.98-2.67-2.9,0-.38.22-.54.47-.61.29-.08,4.46-.02,4.46-.02h11.98c1.42,0,2.58,1.09,2.58,2.44.16,3.34.28,5.48.37,8.83.07,2.59.12,5.18.1,7.77,0,.67.32,3.54.32,5.5,0,2.38-2.32,1.5-3.1,1.35Z"/>
            <path class="cls-2" d="M187.79,50.54c1.42,0,2.58-1.19,2.58-2.65v-5.77c0-1.47-1.16-2.65-2.58-2.65l-6.27-.12c2.61-3.88,2.43-13.89-7.89-15.66-6.24-1.07-15.97,4.14-21.98-.46-2.33-1.78-4.75-2.05-5.76.61-.47,1.24-.84,2.59-.98,3.69-.13,1.02-.26,3.77,2.61,5.69,3.22,2.15,9.92,2.96,20.34.79,5.24-1.09,6.99,5.45,1.45,5.45h-23.22c-1.43,0-2.58,1.19-2.58,2.65v5.77c0,1.47,1.16,2.65,2.58,2.65h15.08s0,6.91.03,13.86c.02,5.04,2.75,7.09,10.78,6.12l6.54-1.11c.71-.14,1.34.49,1.22,1.22-.86,5.34-6.94,8.05-13.91,7.61-4.72-.3-7.85-1.78-9.17-4.14-3.34-6.02-2.55-17.41-2.55-17.41,0-1.47-1.16-2.65-2.58-2.65h-5.18c-.64,0-1.22.24-1.67.63-.56.49-1.32,2.96-1.52,5.18-.29,3.26-.41,8.28.34,11.71,2.7,12.32,9.38,18.35,23.93,18.35,7.59,0,12.99-2.78,16.62-5.85,4.04-3.41,6.3-7.85,6.3-13.23v-8.22c0-1.2-.31-3.8-2.85-4.68-.99-.34-2.07-.28-3.06.08l-7.35,1.75c-.06.02-.11.04-.17.05-2.21.5-3.31.31-4.19-.5-.66-.6-.98-1.48-.98-2.38l.03-6.36,15.99-.02Z"/>
            <path class="cls-2" d="M285.12,101.4c5.01.64,9.24-3.6,8.6-8.61-.43-3.42-3.19-6.18-6.6-6.61-5.01-.64-9.24,3.6-8.6,8.61.43,3.42,3.19,6.17,6.6,6.61h0Z"/>
          </g>
        </g>
        <g>
          <path class="cls-2" d="M220.91,114.65c.22-.19.42-.4.57-.64h0c.28-.47.42-1.03.42-1.68,0-1.02-.36-1.85-1.07-2.46h-.01c-.69-.55-1.68-.83-2.93-.83h-4.17c-.44,0-.82.16-1.13.47-.31.31-.47.69-.47,1.13v8.81s-.21,1.8,1.75,1.79h3.85c1.41,0,2.54-.33,3.34-.99h.01c.79-.7,1.2-1.68,1.2-2.9,0-.76-.17-1.4-.5-1.89-.23-.32-.51-.6-.86-.83ZM215.19,111.85h2.24c.76,0,.99.14,1.04.18h0c.1.08.24.23.24.61s-.13.53-.24.6c-.13.1-.41.22-1.01.22h-2.28v-1.6ZM218.75,118.1c-.26.19-.66.29-1.18.29h-2.37v-2.17h2.34c.73,0,1.06.13,1.21.24.21.16.31.44.31.84,0,.58-.22.74-.3.8Z"/>
          <path class="cls-2" d="M196.64,109.02h-1.6v7.52c0,.78-.14,1.35-.4,1.69-.27.3-.73.45-1.38.45s-1.1-.15-1.38-.45c-.27-.35-.4-.91-.4-1.69v-7.52h-1.6c-.45,0-.83.17-1.14.51-.3.33-.45.72-.45,1.15v6.12c0,1.52.44,2.7,1.32,3.5.8.8,2.03,1.21,3.66,1.21s2.85-.41,3.66-1.21c.87-.8,1.32-1.98,1.32-3.5v-6.12c0-.43-.15-.82-.45-1.15-.31-.34-.7-.51-1.14-.51Z"/>
          <path class="cls-2" d="M205.55,111.65c.32,0,.61.04.86.11.24.07.45.16.62.29.18.19.34.4.47.64.29.6.8.92,1.49.92h1.87l-.04-.44c-.04-.51-.14-.97-.29-1.4-.26-.74-.67-1.36-1.24-1.85-.93-.79-2.19-1.19-3.74-1.19-1.9,0-3.38.57-4.4,1.68-.99,1.07-1.5,2.66-1.5,4.74s.49,3.61,1.46,4.67c.98,1.12,2.41,1.69,4.24,1.69,1.57,0,2.85-.4,3.83-1.18h0c.96-.83,1.51-1.97,1.63-3.39l.04-.44h-1.23s-1.62-.05-2.12.99c-.14.29-.31.52-.51.68-.39.3-.89.45-1.51.45-.89,0-1.53-.28-1.96-.86h0c-.47-.6-.71-1.47-.71-2.61s.24-2.07.7-2.65c.47-.57,1.14-.85,2.04-.85Z"/>
          <g>
            <path class="cls-2" d="M279.21,113.15c-1.07-1.04-2.29-1.56-3.66-1.56-.88,0-1.64.22-2.28.66-.71.51-1.06,1.19-1.06,2.04,0,.73.26,1.36.79,1.89.53.53,1.16.8,1.89.83l1.04-1.7c-1.01-.05-1.52-.37-1.52-.94,0-.53.4-.8,1.18-.8.86,0,1.61.35,2.26,1.04.65.69.98,1.47.98,2.32,0,.96-.33,1.76-.98,2.4-.66.64-1.46.96-2.43.96-1.46,0-3.03-1.61-4.73-4.82l-1.22,1.58c.97,1.72,1.81,2.92,2.52,3.6,1.11,1.05,2.41,1.58,3.92,1.58,1.59,0,2.81-.53,3.68-1.58.81-.97,1.22-2.27,1.22-3.88,0-1.37-.53-2.58-1.6-3.62Z"/>
            <path class="cls-2" d="M297.91,109.71h-10.1c-.73-.83-1.1-1.66-1.1-2.5,0-.75.33-1.52.98-2.32l-1.78-1.22c-.79,1.19-1.18,2.23-1.18,3.14s.3,1.91.9,2.9h-17.33c.07-1.24.55-2.18,1.44-2.82.81-.59,1.86-.88,3.14-.88,1.57,0,3.58.77,6.02,2.32l1.1-1.44c-1.42-.92-2.57-1.57-3.45-1.96-1.26-.55-2.48-.82-3.67-.82-1.88,0-3.41.46-4.59,1.38-1.28.99-1.96,2.39-2.02,4.22h-3.88v2.26c-.56-.76-1.11-1.3-1.65-1.62-.63-.37-1.38-.56-2.24-.56-2.06,0-3.68.73-4.87,2.2l.56,1.48c.55.07.91.17,1.1.32.24.2.36.55.36,1.06,0,.43-.17.99-.52,1.68l.9,1.42c2.32-1.26,4.34-2.27,6.06-3.05.26.47.38,1.55.38,3.25,0,.49,0,.99-.02,1.51-.68-.54-1.4-.83-2.18-.83-.33,0-.83.1-1.48.29-.65.19-1.15.29-1.48.29-1.19,0-2.27-.79-3.26-2.36l-1.06,1.5c1.08,1.96,2.52,2.94,4.32,2.94.36,0,.88-.11,1.57-.34.69-.23,1.21-.34,1.57-.34.63,0,1.28.4,1.95,1.16,0,.11,0,.18,0,.2h1.98v-10.66h1.9v10.66h2.02v-10.66h1.46s11.2-.05,11.2-.05v.05h1.08c.8.37,1.38.78,1.74,1.22l-1.84,1.22.82,1.56c.95-.08,1.72.26,2.32,1.02-.41.16-.9.25-1.46.26-.05.25-.08.41-.08.46,0,1.41.39,2.57,1.18,3.46.83.95,1.93,1.42,3.32,1.42s2.52-.46,3.37-1.38c.85-.92,1.27-2.08,1.27-3.48,0-1.16-.31-2.23-.92-3.2-.45-.72-1.21-1.57-2.28-2.56h4.84v10.7h1.98v-10.7h10.3v5.74c-1.48-1.97-3.2-2.96-5.15-2.96-.98,0-1.8.34-2.46,1.02-.66.68-.99,1.51-.99,2.5,0,.91.3,1.69.9,2.36.61.71,1.37,1.06,2.26,1.06.81,0,1.51-.15,2.1-.44l-.58-1.88c-.49.2-.87.3-1.12.3-.43,0-.79-.14-1.08-.41-.29-.27-.44-.62-.44-1.05,0-.4.16-.74.49-1.02.33-.28.7-.42,1.11-.42.99,0,2.06.55,3.22,1.65,1.16,1.1,1.74,2.14,1.74,3.13v1.12h1.98v-10.7h1.2v-1.8h-11.89ZM257.42,114.93c.07-.24.1-.46.1-.66,0-.76-.35-1.37-1.06-1.82.8-.47,1.53-.7,2.18-.7.45,0,.9.14,1.34.43.44.29.77.64.98,1.05l-3.54,1.7ZM286.51,111.51c.44.85.66,1.47.66,1.86-.45-.45-1.07-.82-1.86-1.1l-.66-.76h1.86ZM284.57,114.3l.62-.41c.76.33,1.28.71,1.56,1.12-.12.28-.25.47-.38.58-.39-.52-.99-.95-1.8-1.29ZM290.09,114.87c.41.68.62,1.48.62,2.4,0,.79-.26,1.47-.79,2.05-.53.58-1.18.87-1.95.87-1.13,0-1.94-.66-2.42-1.98,1.12-.43,1.94-.98,2.46-1.67.52-.69.78-1.62.78-2.79,0-.16,0-.31-.02-.46.61.61,1.05,1.14,1.32,1.58Z"/>
          </g>
          <path class="cls-2" d="M183.32,111.51v-1.8h-1.62c-.04-.56-.17-1.06-.38-1.52.08.05.16.09.24.14l1.1-1.44c-1.42-.92-2.57-1.57-3.45-1.96-1.26-.55-2.48-.82-3.67-.82-1.88,0-3.41.46-4.59,1.38-1.28.99-1.96,2.39-2.02,4.22h-14.63v1.69c-.4-.57-.7-.94-.88-1.11-.4-.37-.84-.56-1.32-.56-1.13,0-2.19.39-3.16,1.16-1.03.83-1.54,1.79-1.54,2.9,0,.67.22,1.21.67,1.63.45.42,1,.63,1.67.63.87,0,1.56-.4,2.08-1.2l-.84-1.36c-.45.44-.81.73-1.06.86-.41-.03-.62-.2-.62-.52,0-.49.29-.98.87-1.46.5-.4,1.03-.67,1.59-.82l.58.54v7.18c-.53-.47-1.12-.7-1.74-.7-.35,0-.86.17-1.54.51-.68.34-1.16.51-1.44.51-1.39,0-2.43-1.19-3.13-3.56l-1.36,1.48c.61,1.32,1.17,2.25,1.68,2.8.76.83,1.71,1.24,2.84,1.24.36,0,.9-.19,1.62-.56.72-.37,1.24-.56,1.56-.56.25,0,.58.2.99.6.41.4.61.73.61.98v.04l-.03.24h1.93v-10.78h6.62v.22l-3.09,1.78c-1.25.72-2.29,1.37-3.11,1.94l.56,2.08c2.29.05,4.24,1.62,5.84,4.7h1.78v-8.6c1.9.21,2.84.81,2.84,1.8,0,.8-.41,1.2-1.24,1.2h-1.02v1.9c.33.05.54.08.62.08.97,0,1.79-.27,2.46-.82.72-.59,1.08-1.35,1.08-2.3,0-1.11-.53-2.03-1.6-2.76-.91-.64-1.95-.99-3.14-1.06v-.16h6v10.66h2.02v-10.66h1.44v10.7c2.07,0,3.55-.09,4.46-.28,1.35-.28,2.54-.85,3.58-1.72,1.2-1,1.8-2.13,1.8-3.4,0-.97-.24-1.77-.72-2.4-.53-.69-1.27-1.04-2.22-1.04-.51,0-1.08.1-1.73.31-.65.21-1.16.46-1.55.75l.8,1.74c1.01-.55,1.65-.82,1.92-.82.97,0,1.46.52,1.46,1.56,0,.97-.65,1.81-1.94,2.5-1.17.63-2.29.92-3.36.88l-.48-.02v-8.76h8.9ZM160.95,119.11c-1.38-1.57-2.37-2.55-2.96-2.94,1.44-1.27,2.42-2.02,2.96-2.26v5.2ZM172.4,106.89c.48-.35,1.05-.58,1.7-.72-.66.26-1.34.61-2.04,1.03.11-.11.21-.22.35-.31ZM172.42,109.71h-1.46c.05-1.01.39-1.8.99-2.41l.65,1.49c1.88-1.01,3.31-1.52,4.28-1.52.73,0,1.37.21,1.92.62.61.45.92,1.03.92,1.74v.08h-7.3Z"/>
        </g>
      </g>
    </g>
  </g>
</svg>